<svg width="20" height="20" viewBox="0 0 20 20" fill="none" xmlns="http://www.w3.org/2000/svg">
<path d="M19 19.0001L13 13.0001M8 11.0001V11.0101M8 8.00006C8.2517 8.00019 8.49939 7.93697 8.72025 7.81624C8.94111 7.69551 9.12803 7.52114 9.26381 7.3092C9.39958 7.09726 9.47984 6.85455 9.49719 6.60345C9.51454 6.35235 9.46842 6.10091 9.36308 5.87231C9.25774 5.64371 9.09657 5.44529 8.89442 5.29533C8.69226 5.14538 8.45562 5.0487 8.20629 5.01421C7.95696 4.97972 7.70297 5.00853 7.46769 5.09798C7.23242 5.18742 7.02344 5.33464 6.86 5.52606M15 8.00006C15 11.8661 11.866 15.0001 8 15.0001C4.13401 15.0001 1 11.8661 1 8.00006C1 4.13407 4.13401 1.00006 8 1.00006C11.866 1.00006 15 4.13407 15 8.00006Z" stroke="black" stroke-width="1.5" stroke-linecap="round" stroke-linejoin="round"/>
</svg>
