<svg width="18" height="21" viewBox="0 0 18 21" fill="none" xmlns="http://www.w3.org/2000/svg">
<path d="M9 12C10.6569 12 12 10.6569 12 9.00001C12 7.34316 10.6569 6.00001 9 6.00001C7.34315 6.00001 6 7.34316 6 9.00001C6 10.6569 7.34315 12 9 12Z" stroke="black" stroke-width="1.5" stroke-linecap="round" stroke-linejoin="round"/>
<path d="M14.657 14.657L10.414 18.9C10.039 19.2746 9.53059 19.4851 9.0005 19.4851C8.47042 19.4851 7.96202 19.2746 7.587 18.9L3.343 14.657C2.22422 13.5382 1.46234 12.1127 1.15369 10.5609C0.845043 9.00904 1.00349 7.40053 1.60901 5.93874C2.21452 4.47696 3.2399 3.22755 4.55548 2.34852C5.87107 1.46949 7.41777 1.00031 9 1.00031C10.5822 1.00031 12.1289 1.46949 13.4445 2.34852C14.7601 3.22755 15.7855 4.47696 16.391 5.93874C16.9965 7.40053 17.155 9.00904 16.8463 10.5609C16.5377 12.1127 15.7758 13.5382 14.657 14.657Z" stroke="black" stroke-width="1.5" stroke-linecap="round" stroke-linejoin="round"/>
</svg>
