<svg width="20" height="18" viewBox="0 0 20 18" fill="none" xmlns="http://www.w3.org/2000/svg">
<path d="M12 5.00003V3.00003C12 2.4696 11.7893 1.96089 11.4142 1.58582C11.0391 1.21074 10.5304 1.00003 10 1.00003H3C2.46957 1.00003 1.96086 1.21074 1.58579 1.58582C1.21071 1.96089 1 2.4696 1 3.00003V15C1 15.5305 1.21071 16.0392 1.58579 16.4142C1.96086 16.7893 2.46957 17 3 17H10C10.5304 17 11.0391 16.7893 11.4142 16.4142C11.7893 16.0392 12 15.5305 12 15V13M5 9.00003H19M19 9.00003L16 6.00003M19 9.00003L16 12" stroke="black" stroke-width="1.5" stroke-linecap="round" stroke-linejoin="round"/>
</svg>
