<svg width="20" height="20" viewBox="0 0 20 20" fill="none" xmlns="http://www.w3.org/2000/svg">
<path d="M12 13.0001V15.0001C12 15.2653 11.8946 15.5196 11.7071 15.7072C11.5196 15.8947 11.2652 16.0001 11 16.0001H4L1 19.0001V9.00006C1 8.73484 1.10536 8.48049 1.29289 8.29295C1.48043 8.10542 1.73478 8.00006 2 8.00006H4M19 12.0001L16 9.00006H9C8.73478 9.00006 8.48043 8.8947 8.29289 8.70717C8.10536 8.51963 8 8.26528 8 8.00006V2.00006C8 1.73484 8.10536 1.48049 8.29289 1.29295C8.48043 1.10542 8.73478 1.00006 9 1.00006H18C18.2652 1.00006 18.5196 1.10542 18.7071 1.29295C18.8946 1.48049 19 1.73484 19 2.00006V12.0001Z" stroke="black" stroke-width="1.5" stroke-linecap="round" stroke-linejoin="round"/>
</svg>
