<svg width="20" height="20" viewBox="0 0 20 20" fill="none" xmlns="http://www.w3.org/2000/svg">
<path d="M9.99999 10.0001C10.5523 10.0001 11 9.55235 11 9.00006C11 8.44778 10.5523 8.00006 9.99999 8.00006C9.4477 8.00006 8.99999 8.44778 8.99999 9.00006C8.99999 9.55235 9.4477 10.0001 9.99999 10.0001ZM9.99999 10.0001V12.5001M9.99999 1.00006C12.3358 3.06664 15.3845 4.14263 18.5 4.00006C18.9536 5.54308 19.0924 7.16153 18.9081 8.75924C18.7239 10.357 18.2203 11.9013 17.4274 13.3006C16.6345 14.6999 15.5684 15.9254 14.2924 16.9045C13.0165 17.8836 11.5568 18.5963 9.99999 19.0001C8.4432 18.5963 6.98347 17.8836 5.70753 16.9045C4.4316 15.9254 3.3655 14.6999 2.57258 13.3006C1.77967 11.9013 1.27612 10.357 1.09186 8.75924C0.907604 7.16153 1.04639 5.54308 1.49999 4.00006C4.61552 4.14263 7.66416 3.06664 9.99999 1.00006Z" stroke="black" stroke-width="1.5" stroke-linecap="round" stroke-linejoin="round"/>
</svg>
